<?xml version="1.0" encoding="UTF-8" standalone="no"?>
<svg
   version="1.1"
   id="Layer_1"
   width="512px"
   height="512px"
   viewBox="0 0 128 129"
   enable-background="new 0 0 128 129"
   xml:space="preserve"
   sodipodi:docname="BisonMapPremiumBorder.svg"
   inkscape:version="1.4 (e7c3feb1, 2024-10-09)"
   xmlns:inkscape="http://www.inkscape.org/namespaces/inkscape"
   xmlns:sodipodi="http://sodipodi.sourceforge.net/DTD/sodipodi-0.dtd"
   xmlns:xlink="http://www.w3.org/1999/xlink"
   xmlns="http://www.w3.org/2000/svg"
   xmlns:svg="http://www.w3.org/2000/svg"><defs
   id="defs3"><linearGradient
     id="linearGradient1"
     inkscape:collect="always"><stop
       style="stop-color:#cca532;stop-opacity:1;"
       offset="0"
       id="stop1" /><stop
       style="stop-color:#cca532;stop-opacity:0.49803922;"
       offset="0.70795113"
       id="stop3" /><stop
       style="stop-color:#cca532;stop-opacity:0.3114754;"
       offset="1"
       id="stop2" /></linearGradient><linearGradient
     inkscape:collect="always"
     xlink:href="#linearGradient1"
     id="linearGradient2"
     x1="41.807522"
     y1="104.68382"
     x2="87.939476"
     y2="24.780924"
     gradientUnits="userSpaceOnUse" /></defs><sodipodi:namedview
   id="namedview3"
   pagecolor="#ffffff"
   bordercolor="#000000"
   borderopacity="0.25"
   inkscape:showpageshadow="2"
   inkscape:pageopacity="0.0"
   inkscape:pagecheckerboard="0"
   inkscape:deskcolor="#d1d1d1"
   inkscape:zoom="1.4290157"
   inkscape:cx="259.26937"
   inkscape:cy="210.98439"
   inkscape:window-width="1704"
   inkscape:window-height="918"
   inkscape:window-x="0"
   inkscape:window-y="38"
   inkscape:window-maximized="0"
   inkscape:current-layer="Layer_1" />

<path
   fill="#E4C6A7"
   opacity="1.000000"
   stroke="none"
   d=" M56.246735,116.745529   C41.505543,99.864685 27.623058,82.823494 20.774668,61.343826   C12.642758,35.838448 29.811350,8.689073 56.118965,3.900208   C81.001556,-0.629254 103.358131,14.802321 109.724052,38.400738   C112.570236,48.951534 110.382072,58.979969 106.041740,68.712021   C99.625809,83.098061 90.842155,95.943275 80.632034,107.863518   C75.387314,113.986710 70.127998,120.097397 64.755219,126.353539   C61.737602,122.934753 59.117821,119.966682 56.246735,116.745529  M99.067444,31.500017   C91.418831,16.937550 79.273247,10.531086 62.956165,10.936424   C46.444614,11.346595 33.833721,21.791506 29.192736,35.565292   C23.842131,51.445137 26.786137,65.693977 39.892586,77.645485   C50.076187,86.931709 61.701416,89.057831 74.132301,86.195801   C97.981049,80.704979 109.905182,55.300816 99.067444,31.500017  z"
   id="path2"
   style="fill:url(#linearGradient2);fill-opacity:1;opacity:1" />

</svg>
